<svg width="50" height="50" viewBox="0 0 43 39" fill="none" xmlns="http://www.w3.org/2000/svg">
<path d="M0 11.0253C0 4.93617 4.93618 0 11.0253 0C13.7463 0 16.3713 1.00625 18.3951 2.82516L18.6133 3.02128C19.159 3.51169 19.6577 4.05196 20.1029 4.63506L20.2946 4.88605C20.7281 5.45386 21.583 5.45386 22.0165 4.88605L22.3376 4.46558C22.697 3.99491 23.0926 3.55308 23.5209 3.1441L23.647 3.02368C25.6794 1.08292 28.3815 0 31.1917 0C37.3007 0 42.2225 5.00965 42.1144 11.1177L42.0651 13.9022C41.9729 14.6796 41.9268 15.0684 41.8691 15.4549C41.7242 16.4262 41.5244 17.3885 41.2706 18.3372C41.1696 18.7147 41.0571 19.0896 40.8321 19.8395L40.8 19.9467L39.8933 22.0622L38.9867 23.8756C38.7442 24.2835 38.623 24.4874 38.4984 24.6887C37.738 25.9167 36.8766 27.0792 35.9232 28.1641C35.7669 28.3419 35.607 28.5172 35.2874 28.8679L34.1933 30.068L33.8214 30.4322C32.3446 31.878 31.6062 32.6009 30.8137 33.2624C30.0212 33.9238 29.1778 34.5209 27.4911 35.7152L27.3982 35.781L24.7308 37.5796C24.4287 37.7833 24.1098 37.9608 23.7775 38.1102C22.1099 38.8599 20.2012 38.8599 18.5336 38.1102C18.2013 37.9608 17.8824 37.7833 17.5803 37.5796L14.9129 35.781L11.5618 33.3254L11.1932 33C9.73567 31.7134 9.00692 31.0701 8.32932 30.3754C8.07931 30.1191 7.83461 29.8576 7.59539 29.5912C6.94706 28.8692 6.35334 28.0995 5.16589 26.5601L2.95194 23.3027L2.86397 23.1602C2.16645 22.0299 1.61727 20.8146 1.22997 19.5442L0.604444 17.2267L0.302222 15.4133L0.124782 14.1712C0.0416987 13.5897 0 13.0029 0 12.4154V11.0253Z" fill="url(#paint0_linear_1030_1176)"/>
<defs>
<linearGradient id="paint0_linear_1030_1176" x1="21.1556" y1="-47.4489" x2="21.1556" y2="47.4489" gradientUnits="userSpaceOnUse">
<stop offset="0.479167" stop-color="#CFE8FF"/>
<stop offset="1" stop-color="#FFB0B0"/>
</linearGradient>
</defs>
</svg>
